<svg width="50" height="50" viewBox="0 0 50 50" fill="none" xmlns="http://www.w3.org/2000/svg">
<path d="M49.0568 22.773L27.2262 0.942892C25.9698 -0.314297 23.9307 -0.314297 22.6724 0.942892L18.1396 5.47654L23.8899 11.227C25.2267 10.7758 26.7588 11.0784 27.8239 12.1435C28.8945 13.2153 29.1947 14.7605 28.7325 16.1016L34.2745 21.6441C35.6152 21.1819 37.1627 21.4805 38.233 22.5532C39.7302 24.0492 39.7302 26.4744 38.233 27.9713C37.8772 28.3272 37.4547 28.6096 36.9898 28.8023C36.5248 28.9949 36.0264 29.0941 35.5231 29.0941C35.0199 29.0941 34.5215 28.9949 34.0565 28.8023C33.5916 28.6096 33.1691 28.3272 32.8133 27.9713C32.2789 27.4363 31.9146 26.7552 31.7663 26.0137C31.6179 25.2722 31.6921 24.5034 31.9796 23.804L26.8115 18.6358L26.8107 32.2379C27.1857 32.4226 27.528 32.6671 27.8242 32.962C29.3207 34.458 29.3207 36.8825 27.8242 38.3817C26.3274 39.8777 23.9014 39.8777 22.4062 38.3817C20.9098 36.8829 20.9098 34.4584 22.4062 32.962C22.7651 32.6033 23.1914 32.3193 23.6606 32.1262V18.3982C23.1909 18.206 22.7643 17.9217 22.4062 17.562C21.2726 16.4292 20.9997 14.7656 21.5812 13.373L15.912 7.70375L0.943158 22.672C0.339254 23.2761 0 24.0953 0 24.9495C0 25.8037 0.339254 26.6229 0.943158 27.227L22.7742 49.0571C24.0313 50.3143 26.0696 50.3143 27.3287 49.0571L49.0572 27.3284C49.6609 26.7241 50.0001 25.9048 50 25.0506C49.9999 24.1964 49.6607 23.3772 49.0568 22.773Z" fill="#F34F29"/>
</svg>
