<svg width="32" height="31" viewBox="0 0 32 31" fill="none" xmlns="http://www.w3.org/2000/svg">
<path d="M16.0846 0.445312C7.51228 0.445312 0.569098 7.33553 0.569098 15.8424C0.566288 19.0748 1.58964 22.2258 3.49385 24.8482C5.39806 27.4706 8.08635 29.4311 11.177 30.4512C11.9528 30.5852 12.2445 30.1233 12.2445 29.7183C12.2445 29.3534 12.2243 28.1417 12.2243 26.8514C8.32684 27.5643 7.31833 25.9091 7.00803 25.0422C6.8327 24.5988 6.0771 23.2331 5.41769 22.8666C4.87465 22.5787 4.09887 21.8658 5.39752 21.8473C6.62014 21.8273 7.49211 22.9636 7.7838 23.4255C9.18019 25.7536 11.4098 25.0992 12.3019 24.6958C12.4384 23.695 12.845 23.0221 13.2918 22.6372C9.8396 22.2523 6.23225 20.9235 6.23225 15.0341C6.23225 13.3589 6.8327 11.9747 7.82259 10.8969C7.66743 10.512 7.12439 8.93375 7.97774 6.81664C7.97774 6.81664 9.27639 6.4117 12.2445 8.39331C13.5077 8.04632 14.8127 7.87176 16.1234 7.87443C17.4422 7.87443 18.761 8.04687 20.0022 8.39331C22.9704 6.39168 24.269 6.81664 24.269 6.81664C25.1224 8.93375 24.5793 10.512 24.4242 10.8969C25.4125 11.9747 26.0145 13.3404 26.0145 15.0341C26.0145 20.9435 22.3885 22.2523 18.9363 22.6372C19.498 23.1176 19.9836 24.0414 19.9836 25.4857C19.9836 27.5443 19.9635 29.1994 19.9635 29.7199C19.9635 30.1233 20.2551 30.6037 21.0309 30.4497C24.11 29.4167 26.7854 27.452 28.6809 24.8319C30.5765 22.2117 31.5968 19.0679 31.5985 15.8424C31.5985 7.33553 24.6553 0.445312 16.083 0.445312" fill="#1D1D1D"/>
</svg>
