<svg width="68" height="78" viewBox="0 0 68 78" fill="none" xmlns="http://www.w3.org/2000/svg">
<path d="M66.708 69.2425C66.4727 69.9605 65.9114 70.7569 64.9911 71.0251C64.3266 71.219 42.3409 77.5862 41.664 77.7636C39.7283 78.2795 38.3829 77.8998 37.4996 77.1199C36.1542 75.9356 20.6069 65.3594 0.994351 64.3608C-1.10228 64.2577 -0.0746005 56.3101 5.91813 56.3101C10.0247 56.3101 22.0308 59.2935 23.4795 57.841C24.5979 56.7186 25.1056 50.0873 20.4377 38.5167L11.0483 15.2557C10.6702 14.2061 10.7137 13.0508 11.1696 12.0326C11.6256 11.0144 12.4584 10.2124 13.4933 9.79526C14.5281 9.37809 15.6844 9.37813 16.7192 9.79539C17.754 10.2126 18.5868 11.0146 19.0427 12.0329L27.2394 32.3311C28.0359 34.3118 29.0182 35.0628 30.0871 34.6501C31.0405 34.287 31.2386 33.6515 30.6608 31.7245L22.2165 6.85002C22.0341 6.31465 21.959 5.74857 21.9955 5.18415C22.032 4.61974 22.1795 4.06805 22.4294 3.56065C22.6793 3.05324 23.0268 2.60006 23.452 2.22701C23.8772 1.85397 24.3718 1.56837 24.9075 1.38656C25.4431 1.20183 26.01 1.12496 26.5755 1.16038C27.141 1.1958 27.6939 1.34281 28.2023 1.59293C28.7107 1.84304 29.1645 2.19132 29.5376 2.61768C29.9107 3.04403 30.1956 3.54001 30.376 4.07703L38.4076 27.73C39.1175 29.8098 39.8687 30.8992 41.0573 30.3957C41.7713 30.0945 41.7218 29.001 41.5319 28.0478L35.8941 5.47178C35.7391 4.9167 35.697 4.33618 35.7702 3.76453C35.8434 3.19289 36.0305 2.64172 36.3203 2.14358C36.6102 1.64545 36.997 1.21047 37.4579 0.864343C37.9188 0.518217 38.4444 0.267968 39.0036 0.128387C39.5629 -0.0111944 40.1444 -0.0372768 40.714 0.0516814C41.2835 0.14064 41.8294 0.342833 42.3194 0.646313C42.8094 0.949794 43.2336 1.3484 43.5669 1.81859C43.9002 2.28877 44.1359 2.82098 44.26 3.38378L49.4603 24.1895C50.2197 27.2472 50.9172 28.349 52.1265 28.0478C53.3605 27.7465 53.3028 26.7314 53.1335 25.8937L49.5346 8.03433C49.3876 7.04076 49.6276 6.02868 50.2051 5.20688C50.7826 4.38507 51.6536 3.81624 52.6383 3.61774C53.6231 3.41924 54.6465 3.60621 55.4974 4.14008C56.3482 4.67395 56.9617 5.51399 57.2112 6.48689L61.1238 25.9268L61.128 25.9309V25.935L63.4722 37.5923C63.984 39.7917 64.5701 41.8632 65.3295 43.8935C69.8075 55.8149 67.4715 66.8532 66.708 69.2425Z" fill="#EAEAEA"/>
</svg>
