<svg width="36" height="36" viewBox="0 0 36 36" fill="none" xmlns="http://www.w3.org/2000/svg">
<path d="M18 1C8.61251 1 1 8.61251 1 18C1 27.3875 8.61251 35 18 35V30.7509C15.4786 30.7505 13.0139 30.0026 10.9176 28.6015C8.8213 27.2005 7.18749 25.2093 6.22275 22.8798C5.25802 20.5503 5.00569 17.987 5.49767 15.5141C5.98966 13.0412 7.20386 10.7696 8.98675 8.98675C10.7696 7.20386 13.0412 5.98966 15.5141 5.49767C17.987 5.00569 20.5503 5.25802 22.8798 6.22275C25.2093 7.18749 27.2005 8.8213 28.6015 10.9176C30.0026 13.0139 30.7505 15.4786 30.7509 18H35C35 8.61251 27.3875 1 18 1Z" fill="#FEFEFE" stroke="#FEFEFE" stroke-width="2"/>
</svg>
