<svg width="54" height="50" viewBox="0 0 54 50" fill="none" xmlns="http://www.w3.org/2000/svg">
<path d="M40.7801 0.803711H12.689C5.84449 0.803711 0.295898 5.86272 0.295898 12.1033V37.7158C0.295898 43.9563 5.84449 49.0154 12.689 49.0154H40.7801C47.6246 49.0154 53.1732 43.9563 53.1732 37.7158V12.1033C53.1732 5.86272 47.6246 0.803711 40.7801 0.803711Z" fill="#242938"/>
<mask id="mask0_124_171" style="mask-type:luminance" maskUnits="userSpaceOnUse" x="8" y="7" width="38" height="35">
<path d="M8.14478 7.96094H45.3241V41.8598H8.14478V7.96094Z" fill="white"/>
</mask>
<g mask="url(#mask0_124_171)">
<path fill-rule="evenodd" clip-rule="evenodd" d="M42.3912 34.3667C40.3691 34.3154 38.8003 34.5043 37.4856 35.0087C37.107 35.1473 36.4995 35.1473 36.4495 35.5818C36.652 35.7641 36.6763 36.0624 36.8538 36.3151C37.1568 36.7737 37.6884 37.3914 38.1685 37.7119L39.7866 38.7662C40.7727 39.3155 41.8852 39.6366 42.8458 40.1865C43.4023 40.5074 43.9583 40.9199 44.5148 41.2639C44.7982 41.4472 44.9698 41.7457 45.324 41.8596V41.7903C45.1472 41.5849 45.0962 41.2871 44.92 41.057L44.1605 40.3929C43.4279 39.4995 42.517 38.7198 41.5309 38.079C40.7217 37.5748 38.9523 36.8876 38.6235 36.0403L38.5737 35.9889C39.1291 35.9377 39.7866 35.7593 40.3181 35.6219C41.1783 35.4164 41.9616 35.4616 42.8458 35.2556L44.0604 34.9347V34.7292C43.6051 34.3169 43.2765 33.7668 42.7965 33.3778C41.5072 32.3697 40.0902 31.3841 38.6235 30.5595C37.8398 30.1014 36.8282 29.8029 35.9939 29.4142C35.6896 29.2766 35.1846 29.2078 35.0078 28.9788C34.5515 28.4756 34.2993 27.8104 33.9707 27.2144L31.8976 23.2279C31.4425 22.3343 31.1637 21.4407 30.6083 20.616C28.0034 16.7208 25.171 14.3613 20.8218 12.0468C19.8868 11.5656 18.7743 11.3586 17.5914 11.107L15.6952 11.0147C15.29 10.8545 14.8857 10.4189 14.5317 10.2124C13.0904 9.38758 9.37328 7.60073 8.31036 9.95576C7.62771 11.4449 9.32226 12.911 9.8975 13.6675C10.3282 14.1944 10.8836 14.7899 11.1878 15.3858C11.3578 15.7751 11.4146 16.1879 11.5921 16.6003C11.9961 17.6082 12.3757 18.7314 12.9068 19.6712C13.1901 20.1523 13.4878 20.657 13.8418 21.0921C14.0442 21.3488 14.3985 21.4588 14.4739 21.871C14.1196 22.3296 14.0953 23.0162 13.8928 23.5899C12.9822 26.179 13.3364 29.3866 14.6257 31.2928C15.0309 31.8653 15.9858 33.126 17.2815 32.6444C18.4194 32.232 18.1656 30.9261 18.4942 29.7803C18.5706 29.5058 18.5198 29.3223 18.671 29.1385V29.1899L19.7081 31.0915C20.492 32.2141 21.8579 33.3829 22.9952 34.1623C23.6016 34.5748 24.0823 35.2855 24.8405 35.5371V35.4678H24.7907C24.6387 35.2624 24.4109 35.1699 24.2087 35.0096C23.7536 34.5974 23.248 34.093 22.8938 33.635C21.8323 32.3521 20.8972 30.9312 20.0623 29.4651C19.6573 28.7549 19.3031 27.9758 18.9755 27.2656C18.8224 26.9905 18.8224 26.5775 18.5702 26.4409C18.1904 26.9441 17.6351 27.3807 17.3557 27.999C16.875 28.9839 16.8253 30.1984 16.6484 31.4587C16.5464 31.4817 16.5916 31.4587 16.5464 31.5099C15.7382 31.3273 15.4593 30.5702 15.1563 29.9293C14.3979 28.3025 14.2708 25.6906 14.9283 23.8117C15.1051 23.3305 15.8646 21.8183 15.5614 21.3601C15.4085 20.9247 14.9039 20.6731 14.6251 20.329C14.2964 19.8936 13.9434 19.344 13.7156 18.8629C13.1092 17.579 12.806 16.1591 12.1479 14.876C11.8436 14.2801 11.3132 13.6613 10.883 13.1119C10.4023 12.4931 9.87251 12.0575 9.49287 11.3247C9.36646 11.068 9.18965 10.6603 9.39187 10.385C9.44185 10.2017 9.54368 10.1283 9.74507 10.0872C10.0735 9.83033 11.01 10.156 11.3386 10.2925C12.2737 10.6366 13.0575 10.9571 13.8414 11.4377C14.1956 11.6667 14.5753 12.1023 15.0303 12.2174H15.562C16.3713 12.3775 17.2809 12.2686 18.0385 12.4741C19.3791 12.8643 20.5923 13.4364 21.6805 14.0556C24.9925 15.9574 27.7242 18.661 29.5693 21.8921C29.8725 22.419 29.9989 22.9002 30.2778 23.4501C30.8094 24.5733 31.4669 25.7185 31.9967 26.8189C32.5284 27.8958 33.0338 28.9963 33.7923 29.8898C34.1719 30.3709 35.6884 30.6225 36.3709 30.8747C36.8769 31.0802 37.6601 31.2651 38.1164 31.5167C38.9755 31.9979 39.8353 32.5478 40.644 33.0747C41.048 33.349 42.3131 33.922 42.3883 34.3791L42.3912 34.3667ZM16.6047 14.4562C16.2554 14.4535 15.9072 14.492 15.5688 14.5707V14.6221H15.6186C15.821 14.9888 16.1752 15.241 16.4278 15.5619L17.0099 16.6617L17.0599 16.6105C17.4139 16.3815 17.5914 16.0148 17.5914 15.4654C17.4395 15.3052 17.4145 15.1443 17.2881 14.9841C17.1363 14.7551 16.8077 14.64 16.6047 14.4573V14.4562Z" fill="white"/>
</g>
</svg>
