<svg width="9457" height="6793" viewBox="0 0 9457 6793" fill="none" xmlns="http://www.w3.org/2000/svg">
<path d="M5230.29 137.584V6656H3748.65V2255.36L3156.8 6656H2105.96L1481.9 2356.02V6656H0.257345V137.584H2194.54C2258.95 529.467 2327.4 991.138 2399.87 1522.6L2633.39 3181.39L3019.91 137.584H5230.29ZM9456.19 2980.08H7761.16V1844.69C7761.16 1514.54 7742.37 1309.21 7704.79 1228.68C7669.9 1145.48 7590.72 1103.87 7467.25 1103.87C7327.67 1103.87 7239.09 1153.53 7201.52 1252.84C7163.94 1352.15 7145.15 1566.88 7145.15 1897.03V4924.73C7145.15 5241.46 7163.94 5448.14 7201.52 5544.77C7239.09 5641.4 7323.64 5689.71 7455.17 5689.71C7581.32 5689.71 7663.19 5641.4 7700.77 5544.77C7741.03 5448.14 7761.16 5221.33 7761.16 4864.34V4047.02H9456.19V4300.67C9456.19 4974.39 9407.87 5452.17 9311.24 5734C9217.3 6015.83 9006.6 6262.77 8679.13 6474.82C8354.35 6686.87 7953.07 6792.89 7475.3 6792.89C6978.73 6792.89 6569.4 6702.97 6247.31 6523.14C5925.21 6343.3 5711.82 6095.02 5607.14 5778.29C5502.46 5458.88 5450.12 4979.76 5450.12 4340.94V2436.54C5450.12 1966.82 5466.23 1615.2 5498.43 1381.68C5530.64 1145.48 5625.93 918.667 5784.29 701.252C5945.34 483.837 6166.78 313.395 6448.62 189.925C6733.14 63.7704 7059.26 0.693278 7426.98 0.693278C7926.23 0.693278 8338.25 97.3221 8663.03 290.58C8987.81 483.837 9201.2 725.409 9303.19 1015.3C9405.19 1302.5 9456.19 1750.75 9456.19 2360.05V2980.08Z" fill="#FEFEFE"/>
</svg>
