<svg width="63" height="63" viewBox="0 0 63 63" fill="none" xmlns="http://www.w3.org/2000/svg">
<g clip-path="url(#clip0_124_160)">
<path d="M31.5022 12.6016C23.102 12.6016 17.8538 16.7999 15.7522 25.2001C18.9012 21.0012 22.5774 19.4267 26.7762 20.4766C29.1737 21.0741 30.887 22.8125 32.7843 24.7389C35.8723 27.8727 39.4466 31.5006 47.2522 31.5006C55.6519 31.5006 60.9006 27.3017 63.0022 18.8996C59.8522 23.1006 56.1774 24.6759 51.9777 23.6256C49.5807 23.0276 47.8694 21.2897 45.9696 19.3632C42.8835 16.2295 39.3103 12.6016 31.5022 12.6016ZM15.7522 31.5006C7.35253 31.5006 2.10384 35.6994 0.00219727 44.1016C3.15187 39.9006 6.82654 38.3253 11.0262 39.3756C13.4237 39.9736 15.137 41.7115 17.0343 43.6379C20.1223 46.7717 23.6966 50.3996 31.5022 50.3996C39.9019 50.3996 45.1506 46.2012 47.2522 37.8011C44.1022 42.0001 40.4274 43.5746 36.2277 42.5246C33.8307 41.9271 32.1194 40.1887 30.2196 38.2623C27.1335 35.1285 23.5603 31.5006 15.7522 31.5006Z" fill="#38BDF8"/>
</g>
<defs>
<clipPath id="clip0_124_160">
<rect width="63" height="63" fill="white"/>
</clipPath>
</defs>
</svg>
