<svg width="28" height="28" viewBox="0 0 28 28" fill="none" xmlns="http://www.w3.org/2000/svg">
<path d="M15.5833 15.226C15.2228 15.5741 14.7401 15.7668 14.239 15.7624C13.7379 15.758 13.2586 15.5571 12.9042 15.2027C12.5499 14.8484 12.3489 14.3691 12.3446 13.868C12.3402 13.3669 12.5328 12.8841 12.881 12.5237L24.3476 1.05707C24.5239 0.87454 24.7348 0.728948 24.9679 0.628789C25.2011 0.52863 25.4519 0.47591 25.7056 0.473705C25.9594 0.4715 26.211 0.519854 26.4459 0.615946C26.6807 0.712038 26.8941 0.853944 27.0736 1.03338C27.253 1.21282 27.3949 1.4262 27.491 1.66107C27.5871 1.89594 27.6355 2.14759 27.6332 2.40134C27.631 2.6551 27.5783 2.90587 27.4782 3.13904C27.378 3.3722 27.2324 3.58308 27.0499 3.75937L15.5833 15.226Z" fill="#FEFEFE"/>
<path d="M23.7878 23.4294V16.7405C23.7878 16.2336 23.9891 15.7475 24.3475 15.3891C24.7059 15.0307 25.192 14.8294 25.6989 14.8294C26.2057 14.8294 26.6918 15.0307 27.0502 15.3891C27.4086 15.7475 27.61 16.2336 27.61 16.7405V25.3405C27.61 25.8473 27.4086 26.3334 27.0502 26.6918C26.6918 27.0502 26.2057 27.2516 25.6989 27.2516H2.7656C2.25874 27.2516 1.77264 27.0502 1.41424 26.6918C1.05584 26.3334 0.854492 25.8473 0.854492 25.3405V2.4072C0.854492 1.90034 1.05584 1.41424 1.41424 1.05584C1.77264 0.697442 2.25874 0.496094 2.7656 0.496094H11.3656C11.8724 0.496094 12.3585 0.697442 12.7169 1.05584C13.0753 1.41424 13.2767 1.90034 13.2767 2.4072C13.2767 2.91406 13.0753 3.40015 12.7169 3.75855C12.3585 4.11696 11.8724 4.3183 11.3656 4.3183H4.6767V23.4294H23.7878ZM27.61 10.0516C27.61 10.5585 27.4086 11.0446 27.0502 11.403C26.6918 11.7614 26.2057 11.9627 25.6989 11.9627C25.192 11.9627 24.7059 11.7614 24.3475 11.403C23.9891 11.0446 23.7878 10.5585 23.7878 10.0516V2.4072C23.7878 1.90034 23.9891 1.41424 24.3475 1.05584C24.7059 0.697442 25.192 0.496094 25.6989 0.496094C26.2057 0.496094 26.6918 0.697442 27.0502 1.05584C27.4086 1.41424 27.61 1.90034 27.61 2.4072V10.0516Z" fill="#FEFEFE"/>
<path d="M18.0547 4.3183C17.5478 4.3183 17.0617 4.11695 16.7033 3.75855C16.3449 3.40015 16.1436 2.91405 16.1436 2.4072C16.1436 1.90034 16.3449 1.41424 16.7033 1.05584C17.0617 0.697442 17.5478 0.496094 18.0547 0.496094H25.6991C26.2059 0.496094 26.692 0.697442 27.0504 1.05584C27.4088 1.41424 27.6102 1.90034 27.6102 2.4072C27.6102 2.91405 27.4088 3.40015 27.0504 3.75855C26.692 4.11695 26.2059 4.3183 25.6991 4.3183H18.0547Z" fill="#FEFEFE"/>
</svg>
